{"title":"Sting - Live In Berlin 2010 480p BDRip XviD AC3 5.1 titler","uid":9491918,"size":1743451590,"categoryP":"video","categoryS":"movies","magnet":"?xt=urn:btih:93454c27f6de299ac7553611d6e21283c81abc1f&amp;dn=Sting+-+Live+In+Berlin+2010+480p+BDRip+XviD+AC3+5.1+titler&amp;tr=udp%3A%2F%2Ftracker.openbittorrent.com%3A80&amp;tr=udp%3A%2F%2Fopen.demonii.com%3A1337&amp;tr=udp%3A%2F%2Ftracker.coppersurfer.tk%3A6969&amp;tr=udp%3A%2F%2Fexodus.desync.com%3A6969","seeders":2,"leechers":1,"uploader":"movieZ.freak","files":3,"time":1390006933,"description":"SOURCE: Sting Live In Berlin 2010 720p BluRay x264 DTS\n\n\n &lt;a href=&quot;\nhttp://en.wikipedia.org/wiki/Live_in_Berlin_%28Sting_album%29&quot; rel=&quot;nofollow&quot; target=&quot;_NEW&quot;&gt;\nhttp://en.wikipedia.org/wiki/Live_in_Berlin_%28Sting_album%29&lt;/a&gt;\n\n\n\n\n- SAMPLE: Yes\n\n\n- LANGUAGE / AUDIO: English\n\n\n\n\nSCREENSHOTS:\n-------------------    &lt;a href=&quot;\nhttp://someimage.com/7OXS&quot; rel=&quot;nofollow&quot; target=&quot;_NEW&quot;&gt;\nhttp://someimage.com/7OXS&lt;/a&gt;\n\n\n\nAVI INFO:\n\n************************************\n\n- Duration: 2h 4mn\n\n- Bit rate: 1318 Kbps\n\n- Res: 854 x 480\n\n- AR: 16:9\n\n- FPS: 29.970\n\n- Audio: AC-3, 448 Kbps, 6 channels\n\n************************************\n\nGeneral\n----------------\nFormat : AVI\nFormat/Info : Audio Video Interleave\nFile size : 1.55 GiB\nDuration : 2h 4mn\nOverall bit rate : 1777 Kbps\nWriting library : VirtualDub build 35491\n\nVideo\n------------\nFormat : MPEG-4 Visual\nFormat profile : Advanced Simple@L5\nFormat settings, BVOP : 2\nFormat settings, QPel : No\nFormat settings, GMC : No warppoints\nFormat settings, Matrix : Default (H.263)\nCodec ID : XVID\nCodec ID/Hint : XviD\nDuration : 2h 4mn\nBit rate : 1318 Kbps\nWidth : 854 pixels\nHeight : 480 pixels\nDisplay aspect ratio : 16:9\nFrame rate : 29.970 fps\nColor space : YUV\nChroma subsampling : 4:2:0\nBit depth : 8 bits\nScan type : Progressive\nCompression mode : Lossy\nBits/(Pixel*Frame) : 0.107\nStream size : 1.15 GiB (74%)\nWriting library : XviD 65\n\nAudio\n------------\nFormat : AC-3\nFormat/Info : Audio Coding 3\nMode extension : CM (complete main)\nFormat settings, Endianness : Big\nCodec ID : 2000\nDuration : 2h 4mn\nBit rate mode : Constant\nBit rate : 448 Kbps\nChannel(s) : 6 channels\nChannel positions : Front: L C R, Side: L R, LFE\nSampling rate : 48.0 KHz\nBit depth : 16 bits\nCompression mode : Lossy\nStream size : 399 MiB (25%)\nAlignment : Aligned on interleaves\nInterleave, duration : 33 ms (1.00 video frame)\nInterleave, preload duration : 512 ms","torrent":{"xt":"urn:btih:93454c27f6de299ac7553611d6e21283c81abc1f","amp;dn":"Sting+-+Live+In+Berlin+2010+480p+BDRip+XviD+AC3+5.1+titler","amp;tr":["udp%3A%2F%2Ftracker.openbittorrent.com%3A80","udp%3A%2F%2Fopen.demonii.com%3A1337","udp%3A%2F%2Ftracker.coppersurfer.tk%3A6969","udp%3A%2F%2Fexodus.desync.com%3A6969"],"infoHash":"93454c27f6de299ac7553611d6e21283c81abc1f","infoHashBuffer":{"type":"Buffer","data":[147,69,76,39,246,222,41,154,199,85,54,17,214,226,18,131,200,26,188,31]},"announce":[],"urlList":[]}}